<svg width="106" height="119" viewBox="0 0 106 119" fill="none" xmlns="http://www.w3.org/2000/svg">
<path d="M7.39922 85.7141C24.7276 110.898 54.4969 118.851 54.4969 118.851C54.4969 118.851 84.7105 106.48 97.1514 85.7141C109.592 56.9955 104.26 16.3475 104.26 16.3475C104.26 16.3475 73.7072 -2.20405e-06 52.4974 0C31.2877 2.20404e-06 0.734455 16.3475 0.734455 16.3475C0.734455 16.3475 -3.26431 59.2046 7.39922 85.7141Z" fill="#6096ba"/>
<path d="M47.4717 0.275391C55.6143 5.58615 62.9434 10.928 71.7852 18.2295V52.6436C63.9609 59.4156 55.895 66.4431 47.0527 73.8818L67.5391 112.245C60.5335 116.308 55.1127 118.595 54.5459 118.831H54.4248C52.8041 118.382 24.2322 110.178 7.39941 85.7139C-3.2546 59.2278 0.727319 16.4234 0.734375 16.3477C0.734375 16.3477 26.7819 2.4127 47.4717 0.275391Z" fill="#274c77"/>
</svg>